<?xml version="1.0" encoding="UTF-8" standalone="no"?>
<!DOCTYPE svg PUBLIC "-//W3C//DTD SVG 1.1//EN"
 "http://www.w3.org/Graphics/SVG/1.1/DTD/svg11.dtd">
<!-- Generated by graphviz version 2.40.1 (20161225.0304)
 -->
<!-- Pages: 1 -->
<svg width="1155pt" height="260pt"
 viewBox="0.00 0.00 1154.89 260.00" xmlns="http://www.w3.org/2000/svg" xmlns:xlink="http://www.w3.org/1999/xlink">
<g id="graph0" class="graph" transform="scale(1 1) rotate(0) translate(4 256)">
<polygon fill="#ffffff" stroke="transparent" points="-4,4 -4,-256 1150.8909,-256 1150.8909,4 -4,4"/>
<!-- ubuntu&#45;nginx&#45;app:v1.0.0&#45;6c2622f -->
<g id="node1" class="node">
<title>ubuntu&#45;nginx&#45;app:v1.0.0&#45;6c2622f</title>
<ellipse fill="#0000ff" stroke="#000000" cx="508.2106" cy="-234" rx="141.8361" ry="18"/>
<text text-anchor="middle" x="508.2106" y="-229.8" font-family="Times,serif" font-size="14.00" fill="#000000">ubuntu&#45;nginx&#45;app:v1.0.0&#45;6c2622f</text>
</g>
<!-- 52e0a43 -->
<g id="node2" class="node">
<title>52e0a43</title>
<ellipse fill="#00ff00" stroke="#000000" cx="289.2106" cy="-162" rx="43.506" ry="18"/>
<text text-anchor="middle" x="289.2106" y="-157.8" font-family="Times,serif" font-size="14.00" fill="#000000">52e0a43</text>
</g>
<!-- ubuntu&#45;nginx&#45;app:v1.0.0&#45;6c2622f&#45;&gt;52e0a43 -->
<g id="edge1" class="edge">
<title>ubuntu&#45;nginx&#45;app:v1.0.0&#45;6c2622f&#45;&gt;52e0a43</title>
<path fill="none" stroke="#000000" d="M456.8648,-217.1192C419.3075,-204.7716 368.8921,-188.1967 333.1831,-176.4567"/>
<polygon fill="#000000" stroke="#000000" points="334.1172,-173.0796 323.5243,-173.2812 331.9309,-179.7294 334.1172,-173.0796"/>
</g>
<!-- nginx&#45;app:v1.0.0&#45;572061c -->
<g id="node3" class="node">
<title>nginx&#45;app:v1.0.0&#45;572061c</title>
<ellipse fill="#0000ff" stroke="#000000" cx="508.2106" cy="-162" rx="113.4818" ry="18"/>
<text text-anchor="middle" x="508.2106" y="-157.8" font-family="Times,serif" font-size="14.00" fill="#000000">nginx&#45;app:v1.0.0&#45;572061c</text>
</g>
<!-- ubuntu&#45;nginx&#45;app:v1.0.0&#45;6c2622f&#45;&gt;nginx&#45;app:v1.0.0&#45;572061c -->
<g id="edge2" class="edge">
<title>ubuntu&#45;nginx&#45;app:v1.0.0&#45;6c2622f&#45;&gt;nginx&#45;app:v1.0.0&#45;572061c</title>
<path fill="none" stroke="#000000" d="M508.2106,-215.8314C508.2106,-208.131 508.2106,-198.9743 508.2106,-190.4166"/>
<polygon fill="#000000" stroke="#000000" points="511.7107,-190.4132 508.2106,-180.4133 504.7107,-190.4133 511.7107,-190.4132"/>
</g>
<!-- ubuntu:21.04&#45;ef8ee90 -->
<g id="node4" class="node">
<title>ubuntu:21.04&#45;ef8ee90</title>
<ellipse fill="#00ff00" stroke="#000000" cx="1001.2106" cy="-162" rx="96.099" ry="18"/>
<text text-anchor="middle" x="1001.2106" y="-157.8" font-family="Times,serif" font-size="14.00" fill="#000000">ubuntu:21.04&#45;ef8ee90</text>
</g>
<!-- ubuntu&#45;nginx&#45;app:v1.0.0&#45;6c2622f&#45;&gt;ubuntu:21.04&#45;ef8ee90 -->
<g id="edge3" class="edge">
<title>ubuntu&#45;nginx&#45;app:v1.0.0&#45;6c2622f&#45;&gt;ubuntu:21.04&#45;ef8ee90</title>
<path fill="none" stroke="#000000" d="M601.5197,-220.3727C691.8341,-207.1828 827.6038,-187.3543 915.3206,-174.5438"/>
<polygon fill="#000000" stroke="#000000" points="915.8537,-178.0031 925.2429,-173.0947 914.842,-171.0766 915.8537,-178.0031"/>
</g>
<!-- ee951c0 -->
<g id="node5" class="node">
<title>ee951c0</title>
<ellipse fill="none" stroke="#000000" cx="244.2106" cy="-90" rx="43.4221" ry="18"/>
<text text-anchor="middle" x="244.2106" y="-85.8" font-family="Times,serif" font-size="14.00" fill="#000000">ee951c0</text>
</g>
<!-- 52e0a43&#45;&gt;ee951c0 -->
<g id="edge4" class="edge">
<title>52e0a43&#45;&gt;ee951c0</title>
<path fill="none" stroke="#000000" d="M278.087,-144.2022C272.801,-135.7448 266.3783,-125.4685 260.5524,-116.147"/>
<polygon fill="#000000" stroke="#000000" points="263.4742,-114.218 255.2062,-107.593 257.5382,-117.928 263.4742,-114.218"/>
</g>
<!-- 0535982 -->
<g id="node6" class="node">
<title>0535982</title>
<ellipse fill="#00ff00" stroke="#000000" cx="350.2106" cy="-90" rx="44.6722" ry="18"/>
<text text-anchor="middle" x="350.2106" y="-85.8" font-family="Times,serif" font-size="14.00" fill="#000000">0535982</text>
</g>
<!-- nginx&#45;app:v1.0.0&#45;572061c&#45;&gt;0535982 -->
<g id="edge5" class="edge">
<title>nginx&#45;app:v1.0.0&#45;572061c&#45;&gt;0535982</title>
<path fill="none" stroke="#000000" d="M470.7668,-144.937C446.1677,-133.7273 414.0539,-119.0932 389.1568,-107.7476"/>
<polygon fill="#000000" stroke="#000000" points="390.5498,-104.5362 379.9988,-103.5744 387.6471,-110.906 390.5498,-104.5362"/>
</g>
<!-- nginx:1.21.1&#45;5e95e5e -->
<g id="node7" class="node">
<title>nginx:1.21.1&#45;5e95e5e</title>
<ellipse fill="#00ff00" stroke="#000000" cx="508.2106" cy="-90" rx="95.4985" ry="18"/>
<text text-anchor="middle" x="508.2106" y="-85.8" font-family="Times,serif" font-size="14.00" fill="#000000">nginx:1.21.1&#45;5e95e5e</text>
</g>
<!-- nginx&#45;app:v1.0.0&#45;572061c&#45;&gt;nginx:1.21.1&#45;5e95e5e -->
<g id="edge6" class="edge">
<title>nginx&#45;app:v1.0.0&#45;572061c&#45;&gt;nginx:1.21.1&#45;5e95e5e</title>
<path fill="none" stroke="#000000" d="M508.2106,-143.8314C508.2106,-136.131 508.2106,-126.9743 508.2106,-118.4166"/>
<polygon fill="#000000" stroke="#000000" points="511.7107,-118.4132 508.2106,-108.4133 504.7107,-118.4133 511.7107,-118.4132"/>
</g>
<!-- nginx&#45;chart:1.0.0&#45;7ca59b0 -->
<g id="node8" class="node">
<title>nginx&#45;chart:1.0.0&#45;7ca59b0</title>
<ellipse fill="#00ff00" stroke="#000000" cx="827.2106" cy="-90" rx="113.4548" ry="18"/>
<text text-anchor="middle" x="827.2106" y="-85.8" font-family="Times,serif" font-size="14.00" fill="#000000">nginx&#45;chart:1.0.0&#45;7ca59b0</text>
</g>
<!-- nginx&#45;app:v1.0.0&#45;572061c&#45;&gt;nginx&#45;chart:1.0.0&#45;7ca59b0 -->
<g id="edge7" class="edge">
<title>nginx&#45;app:v1.0.0&#45;572061c&#45;&gt;nginx&#45;chart:1.0.0&#45;7ca59b0</title>
<path fill="none" stroke="#000000" d="M573.5347,-147.256C625.2722,-135.5786 697.6062,-119.2524 751.801,-107.0203"/>
<polygon fill="#000000" stroke="#000000" points="752.7162,-110.4019 761.7002,-104.786 751.175,-103.5737 752.7162,-110.4019"/>
</g>
<!-- bf70ebd -->
<g id="node9" class="node">
<title>bf70ebd</title>
<ellipse fill="none" stroke="#000000" cx="1001.2106" cy="-90" rx="42.8615" ry="18"/>
<text text-anchor="middle" x="1001.2106" y="-85.8" font-family="Times,serif" font-size="14.00" fill="#000000">bf70ebd</text>
</g>
<!-- ubuntu:21.04&#45;ef8ee90&#45;&gt;bf70ebd -->
<g id="edge8" class="edge">
<title>ubuntu:21.04&#45;ef8ee90&#45;&gt;bf70ebd</title>
<path fill="none" stroke="#000000" d="M1001.2106,-143.8314C1001.2106,-136.131 1001.2106,-126.9743 1001.2106,-118.4166"/>
<polygon fill="#000000" stroke="#000000" points="1004.7107,-118.4132 1001.2106,-108.4133 997.7107,-118.4133 1004.7107,-118.4132"/>
</g>
<!-- 4451f5c -->
<g id="node10" class="node">
<title>4451f5c</title>
<ellipse fill="none" stroke="#000000" cx="1104.2106" cy="-90" rx="42.8615" ry="18"/>
<text text-anchor="middle" x="1104.2106" y="-85.8" font-family="Times,serif" font-size="14.00" fill="#000000">4451f5c</text>
</g>
<!-- ubuntu:21.04&#45;ef8ee90&#45;&gt;4451f5c -->
<g id="edge9" class="edge">
<title>ubuntu:21.04&#45;ef8ee90&#45;&gt;4451f5c</title>
<path fill="none" stroke="#000000" d="M1026.144,-144.5708C1040.3781,-134.6208 1058.3407,-122.0643 1073.4462,-111.5052"/>
<polygon fill="#000000" stroke="#000000" points="1075.7694,-114.1516 1081.9602,-105.5537 1071.7588,-108.4144 1075.7694,-114.1516"/>
</g>
<!-- 9e324aa -->
<g id="node11" class="node">
<title>9e324aa</title>
<ellipse fill="none" stroke="#000000" cx="43.2106" cy="-18" rx="43.4221" ry="18"/>
<text text-anchor="middle" x="43.2106" y="-13.8" font-family="Times,serif" font-size="14.00" fill="#000000">9e324aa</text>
</g>
<!-- 0535982&#45;&gt;9e324aa -->
<g id="edge10" class="edge">
<title>0535982&#45;&gt;9e324aa</title>
<path fill="none" stroke="#000000" d="M316.7297,-78.011C309.9877,-75.832 302.9131,-73.7109 296.2106,-72 208.6991,-49.662 183.6585,-58.5852 96.2106,-36 92.6617,-35.0834 89.008,-34.0462 85.3574,-32.9437"/>
<polygon fill="#000000" stroke="#000000" points="86.3657,-29.5918 75.7757,-29.9113 84.2535,-36.2656 86.3657,-29.5918"/>
</g>
<!-- dd34e67 -->
<g id="node12" class="node">
<title>dd34e67</title>
<ellipse fill="none" stroke="#000000" cx="149.2106" cy="-18" rx="44.0891" ry="18"/>
<text text-anchor="middle" x="149.2106" y="-13.8" font-family="Times,serif" font-size="14.00" fill="#000000">dd34e67</text>
</g>
<!-- nginx:1.21.1&#45;5e95e5e&#45;&gt;dd34e67 -->
<g id="edge11" class="edge">
<title>nginx:1.21.1&#45;5e95e5e&#45;&gt;dd34e67</title>
<path fill="none" stroke="#000000" d="M437.868,-77.8135C351.3756,-62.7894 214.5473,-38.8766 203.2106,-36 199.6485,-35.0962 195.9819,-34.0751 192.3162,-32.99"/>
<polygon fill="#000000" stroke="#000000" points="193.2755,-29.6231 182.6875,-30.0042 191.2022,-36.309 193.2755,-29.6231"/>
</g>
<!-- e1acddb -->
<g id="node13" class="node">
<title>e1acddb</title>
<ellipse fill="none" stroke="#000000" cx="255.2106" cy="-18" rx="43.4221" ry="18"/>
<text text-anchor="middle" x="255.2106" y="-13.8" font-family="Times,serif" font-size="14.00" fill="#000000">e1acddb</text>
</g>
<!-- nginx:1.21.1&#45;5e95e5e&#45;&gt;e1acddb -->
<g id="edge12" class="edge">
<title>nginx:1.21.1&#45;5e95e5e&#45;&gt;e1acddb</title>
<path fill="none" stroke="#000000" d="M450.2845,-75.5966C409.9594,-65.2874 355.0516,-50.6864 307.2106,-36 304.1054,-35.0468 300.9079,-34.0293 297.6972,-32.9813"/>
<polygon fill="#000000" stroke="#000000" points="298.6989,-29.6259 288.1052,-29.7802 296.4829,-36.2659 298.6989,-29.6259"/>
</g>
<!-- e21006f -->
<g id="node14" class="node">
<title>e21006f</title>
<ellipse fill="none" stroke="#000000" cx="359.2106" cy="-18" rx="42.8615" ry="18"/>
<text text-anchor="middle" x="359.2106" y="-13.8" font-family="Times,serif" font-size="14.00" fill="#000000">e21006f</text>
</g>
<!-- nginx:1.21.1&#45;5e95e5e&#45;&gt;e21006f -->
<g id="edge13" class="edge">
<title>nginx:1.21.1&#45;5e95e5e&#45;&gt;e21006f</title>
<path fill="none" stroke="#000000" d="M473.2767,-73.1192C450.2944,-62.0137 420.2354,-47.4885 396.7443,-36.1371"/>
<polygon fill="#000000" stroke="#000000" points="397.9711,-32.8427 387.4444,-31.6432 394.9254,-39.1455 397.9711,-32.8427"/>
</g>
<!-- f3341cc -->
<g id="node15" class="node">
<title>f3341cc</title>
<ellipse fill="none" stroke="#000000" cx="462.2106" cy="-18" rx="42.2777" ry="18"/>
<text text-anchor="middle" x="462.2106" y="-13.8" font-family="Times,serif" font-size="14.00" fill="#000000">f3341cc</text>
</g>
<!-- nginx:1.21.1&#45;5e95e5e&#45;&gt;f3341cc -->
<g id="edge14" class="edge">
<title>nginx:1.21.1&#45;5e95e5e&#45;&gt;f3341cc</title>
<path fill="none" stroke="#000000" d="M496.6028,-71.8314C491.1974,-63.3707 484.6688,-53.1521 478.7586,-43.9014"/>
<polygon fill="#000000" stroke="#000000" points="481.6719,-41.9603 473.3385,-35.4177 475.773,-45.7291 481.6719,-41.9603"/>
</g>
<!-- 2a53fa5 -->
<g id="node16" class="node">
<title>2a53fa5</title>
<ellipse fill="none" stroke="#000000" cx="564.2106" cy="-18" rx="42.2777" ry="18"/>
<text text-anchor="middle" x="564.2106" y="-13.8" font-family="Times,serif" font-size="14.00" fill="#000000">2a53fa5</text>
</g>
<!-- nginx:1.21.1&#45;5e95e5e&#45;&gt;2a53fa5 -->
<g id="edge15" class="edge">
<title>nginx:1.21.1&#45;5e95e5e&#45;&gt;2a53fa5</title>
<path fill="none" stroke="#000000" d="M522.3417,-71.8314C529.0579,-63.1962 537.1984,-52.7299 544.5091,-43.3304"/>
<polygon fill="#000000" stroke="#000000" points="547.2867,-45.4601 550.6634,-35.4177 541.7613,-41.1624 547.2867,-45.4601"/>
</g>
<!-- 12455f7 -->
<g id="node17" class="node">
<title>12455f7</title>
<ellipse fill="none" stroke="#000000" cx="667.2106" cy="-18" rx="43.4454" ry="18"/>
<text text-anchor="middle" x="667.2106" y="-13.8" font-family="Times,serif" font-size="14.00" fill="#000000">12455f7</text>
</g>
<!-- nginx:1.21.1&#45;5e95e5e&#45;&gt;12455f7 -->
<g id="edge16" class="edge">
<title>nginx:1.21.1&#45;5e95e5e&#45;&gt;12455f7</title>
<path fill="none" stroke="#000000" d="M545.088,-73.3008C570.0613,-61.9921 603.0015,-47.0758 628.3771,-35.585"/>
<polygon fill="#000000" stroke="#000000" points="630.034,-38.6769 637.6997,-31.3634 627.1464,-32.3002 630.034,-38.6769"/>
</g>
<!-- b86f2ba -->
<g id="node18" class="node">
<title>b86f2ba</title>
<ellipse fill="none" stroke="#000000" cx="771.2106" cy="-18" rx="42.8615" ry="18"/>
<text text-anchor="middle" x="771.2106" y="-13.8" font-family="Times,serif" font-size="14.00" fill="#000000">b86f2ba</text>
</g>
<!-- nginx:1.21.1&#45;5e95e5e&#45;&gt;b86f2ba -->
<g id="edge17" class="edge">
<title>nginx:1.21.1&#45;5e95e5e&#45;&gt;b86f2ba</title>
<path fill="none" stroke="#000000" d="M568.6021,-75.9497C610.9941,-65.7451 668.8743,-51.1249 719.2106,-36 722.367,-35.0515 725.6172,-34.0318 728.8784,-32.9772"/>
<polygon fill="#000000" stroke="#000000" points="730.2248,-36.2181 738.6126,-29.7455 728.0192,-29.5747 730.2248,-36.2181"/>
</g>
<!-- 44136fa -->
<g id="node19" class="node">
<title>44136fa</title>
<ellipse fill="none" stroke="#000000" cx="874.2106" cy="-18" rx="42.8615" ry="18"/>
<text text-anchor="middle" x="874.2106" y="-13.8" font-family="Times,serif" font-size="14.00" fill="#000000">44136fa</text>
</g>
<!-- nginx&#45;chart:1.0.0&#45;7ca59b0&#45;&gt;44136fa -->
<g id="edge18" class="edge">
<title>nginx&#45;chart:1.0.0&#45;7ca59b0&#45;&gt;44136fa</title>
<path fill="none" stroke="#000000" d="M839.0706,-71.8314C844.5936,-63.3707 851.2641,-53.1521 857.3027,-43.9014"/>
<polygon fill="#000000" stroke="#000000" points="860.3052,-45.7047 862.8407,-35.4177 854.4436,-41.8783 860.3052,-45.7047"/>
</g>
<!-- 64f0240 -->
<g id="node20" class="node">
<title>64f0240</title>
<ellipse fill="none" stroke="#000000" cx="978.2106" cy="-18" rx="43.4454" ry="18"/>
<text text-anchor="middle" x="978.2106" y="-13.8" font-family="Times,serif" font-size="14.00" fill="#000000">64f0240</text>
</g>
<!-- nginx&#45;chart:1.0.0&#45;7ca59b0&#45;&gt;64f0240 -->
<g id="edge19" class="edge">
<title>nginx&#45;chart:1.0.0&#45;7ca59b0&#45;&gt;64f0240</title>
<path fill="none" stroke="#000000" d="M863.3788,-72.7542C886.5376,-61.7116 916.5463,-47.4028 940.0787,-36.1821"/>
<polygon fill="#000000" stroke="#000000" points="941.8817,-39.1999 949.4017,-31.7367 938.8689,-32.8815 941.8817,-39.1999"/>
</g>
</g>
</svg>
